<svg xmlns="http://www.w3.org/2000/svg" xmlns:xlink="http://www.w3.org/1999/xlink" viewBox="0 0 1080 1080"><defs><style>.cls-1,.cls-15,.cls-16,.cls-17{fill:none;}.cls-2{isolation:isolate;}.cls-3{fill:url(#linear-gradient);}.cls-4{mix-blend-mode:multiply;}.cls-5{clip-path:url(#clip-path);}.cls-6{fill:#707070;}.cls-7{fill:#bcbcbc;}.cls-8{clip-path:url(#clip-path-2);}.cls-9{fill:#005b50;}.cls-10{fill:url(#linear-gradient-2);}.cls-11{fill:url(#linear-gradient-3);}.cls-12{clip-path:url(#clip-path-3);}.cls-13{fill:#02382e;}.cls-14{fill:#014238;}.cls-15,.cls-17{stroke:#ced8dd;}.cls-15{stroke-miterlimit:10;}.cls-15,.cls-16,.cls-17{stroke-width:59.11px;}.cls-16{stroke:#e6eaed;}.cls-16,.cls-17{stroke-linecap:round;stroke-linejoin:round;}.cls-18{fill:url(#linear-gradient-4);}</style><linearGradient id="linear-gradient" x1="285.09" y1="441.69" x2="1112.81" y2="708.52" gradientUnits="userSpaceOnUse"><stop offset="0.01" stop-color="#2ecc71"/><stop offset="1" stop-color="#009b90"/></linearGradient><clipPath id="clip-path"><path class="cls-1" d="M92.67,342.71V710.94A120.34,120.34,0,0,0,159.1,818.53L485.2,982a120.37,120.37,0,0,0,107.86,0l326.1-163.45a120.34,120.34,0,0,0,66.43-107.59V342.71A120.34,120.34,0,0,0,920.85,236L594.75,66.05a120.38,120.38,0,0,0-111.24,0L157.41,236A120.34,120.34,0,0,0,92.67,342.71Z"/></clipPath><clipPath id="clip-path-2"><path class="cls-1" d="M92.59,344.77V708.85a123.8,123.8,0,0,0,68.34,110.68L483.65,981.29a123.82,123.82,0,0,0,111,0L917.33,819.53a123.79,123.79,0,0,0,68.33-110.68V344.77A123.8,123.8,0,0,0,919.07,235L596.34,66.8a123.83,123.83,0,0,0-114.43,0L159.19,235A123.79,123.79,0,0,0,92.59,344.77Z"/></clipPath><linearGradient id="linear-gradient-2" x1="106.09" y1="881.67" x2="1057.47" y2="881.67" gradientUnits="userSpaceOnUse"><stop offset="0" stop-color="#ff926b"/><stop offset="1" stop-color="#d73c2c"/></linearGradient><linearGradient id="linear-gradient-3" x1="106.09" y1="873.98" x2="1057.47" y2="873.98" xlink:href="#linear-gradient-2"/><clipPath id="clip-path-3"><path class="cls-1" d="M92.67,344.8v364A123.78,123.78,0,0,0,161,819.48L483.66,981.21a123.78,123.78,0,0,0,110.94,0L917.27,819.48a123.8,123.8,0,0,0,68.32-110.66v-364A123.78,123.78,0,0,0,919,235L596.33,66.88a123.79,123.79,0,0,0-114.41,0L159.26,235A123.77,123.77,0,0,0,92.67,344.8Z"/></clipPath><linearGradient id="linear-gradient-4" x1="106.09" y1="959.74" x2="1057.47" y2="959.74" xlink:href="#linear-gradient-2"/></defs><g class="cls-2"><g id="Layer_1" data-name="Layer 1"><path class="cls-3" d="M92.67,342.71V710.94A120.34,120.34,0,0,0,159.1,818.53L485.2,982a120.37,120.37,0,0,0,107.86,0l326.1-163.45a120.34,120.34,0,0,0,66.43-107.59V342.71A120.34,120.34,0,0,0,920.85,236L594.75,66.05a120.38,120.38,0,0,0-111.24,0L157.41,236A120.34,120.34,0,0,0,92.67,342.71Z"/><g class="cls-4"><g class="cls-5"><polyline class="cls-6" points="539.13 1103.34 539.13 1093.95 539.13 503.72 983.46 270.56 1097.53 335.35 1056.22 900.54"/><polygon class="cls-7" points="539.13 1043.25 539.13 503.72 34.73 232.07 34.73 924.95 539.13 1043.25"/></g></g><g class="cls-8"><path class="cls-9" d="M119.86,874.26,281.34,750.53l157.73-64,15,95.77-9.22,109.67v78.72l9.22,47.57L606.38,1015,589.29,861.74l56.65-139.59L750.77,694l139-86,42.56,246.2L626.84,1027.57s-181.51,58.24-187.77,58.24S185,1027.57,185,1027.57Z"/></g><path class="cls-10" d="M413.1,772.21a278,278,0,0,1,44.19-19.48L453.87,851,172.55,1005.14a44.34,44.34,0,1,1-42.62-77.76Z"/><path class="cls-11" d="M977.75,979a44.31,44.31,0,0,1-59.89,18.51L635.63,848.54a191,191,0,0,0-27.47-11.85l3-91.34A279.61,279.61,0,0,1,677,770.12L959.24,919.06A44.32,44.32,0,0,1,977.75,979Z"/><g class="cls-12"><polygon class="cls-13" points="882.76 829.81 909.75 802.15 899.74 608.03 680.08 704.36 703.62 735.87 882.76 829.81"/><polygon class="cls-14" points="172.7 538.77 187.87 789.13 200.33 839.2 444.87 711.44 444.87 594.68 383.15 592.18 341.43 625.56 285.69 570.12 212.07 488.69 172.7 538.77"/><line class="cls-15" x1="606.38" y1="742.77" x2="921.02" y2="578.81"/><path class="cls-16" d="M172.7,849V474.28c0-19.83,26.09-27.09,36.33-10.11L326.41,626.39l92-52.59A29.4,29.4,0,0,1,459.1,601V966.26"/><line class="cls-17" x1="606.38" y1="534.55" x2="606.38" y2="1015.03"/><line class="cls-17" x1="921.02" y1="383.74" x2="921.02" y2="918.91"/><path class="cls-16" d="M222.45,275.26,513.39,125.51A56.42,56.42,0,0,1,566,126L753.69,227.48c39.83,20.94,39.73,78-.18,98.79h0a183.54,183.54,0,0,1-169.74,0L459.1,258.08s147.28,90.41,83.45,188.05"/><line class="cls-16" x1="358.09" y1="205.45" x2="459.1" y2="258.08"/></g><path class="cls-18" d="M1024.92,910v71.88a35.63,35.63,0,0,1-33.45,35.57l-164,10.07c-19.23,1.18-26.7-24.55-9.82-33.85l180.5-99.49A18.06,18.06,0,0,1,1024.92,910Z"/></g></g></svg>