<svg xmlns="http://www.w3.org/2000/svg" xmlns:xlink="http://www.w3.org/1999/xlink" viewBox="0 0 1080 1080"><defs><style>.cls-1,.cls-16,.cls-17,.cls-18,.cls-19{fill:none;}.cls-2{isolation:isolate;}.cls-3{fill:url(#linear-gradient);}.cls-4{mix-blend-mode:multiply;}.cls-5{clip-path:url(#clip-path);}.cls-6{fill:#56616d;}.cls-7{fill:#b5b8c2;}.cls-8{clip-path:url(#clip-path-2);}.cls-9{fill:#3b5257;}.cls-10{fill:url(#linear-gradient-2);}.cls-11{fill:url(#linear-gradient-3);}.cls-12{fill:url(#linear-gradient-4);}.cls-13{clip-path:url(#clip-path-3);}.cls-14{fill:#263537;}.cls-15{fill:#2e4043;}.cls-16,.cls-18{stroke:#c1ccd5;}.cls-16{stroke-miterlimit:10;}.cls-16,.cls-17,.cls-18,.cls-19{stroke-width:49.92px;}.cls-17{stroke:#dce5eb;}.cls-17,.cls-18,.cls-19{stroke-linecap:round;stroke-linejoin:round;}.cls-19{stroke:#ebf3f7;}</style><linearGradient id="linear-gradient" x1="117.41" y1="789.09" x2="395.99" y2="606.78" gradientUnits="userSpaceOnUse"><stop offset="0.01" stop-color="#fff"/><stop offset="1" stop-color="#7e8897"/></linearGradient><clipPath id="clip-path"><path class="cls-1" d="M146.39,367.91v311a101.65,101.65,0,0,0,56.1,90.87l275.39,138a101.69,101.69,0,0,0,91.09,0l275.39-138a101.66,101.66,0,0,0,56.09-90.87v-311a101.61,101.61,0,0,0-54.67-90.13L570.39,134.28a101.64,101.64,0,0,0-93.93,0l-275.4,143.5A101.66,101.66,0,0,0,146.39,367.91Z"/></clipPath><clipPath id="clip-path-2"><path class="cls-1" d="M146.33,369.64V677.11A104.55,104.55,0,0,0,204,770.58l272.53,136.6a104.55,104.55,0,0,0,93.7,0l272.54-136.6a104.57,104.57,0,0,0,57.71-93.47V369.64a104.56,104.56,0,0,0-56.24-92.72l-272.54-142a104.54,104.54,0,0,0-96.63,0l-272.54,142A104.56,104.56,0,0,0,146.33,369.64Z"/></clipPath><linearGradient id="linear-gradient-2" x1="157.72" y1="823.05" x2="961.16" y2="823.05" gradientUnits="userSpaceOnUse"><stop offset="0" stop-color="#ebf3f7"/><stop offset="1" stop-color="#94939f"/></linearGradient><linearGradient id="linear-gradient-3" x1="157.72" y1="816.56" x2="961.16" y2="816.56" gradientUnits="userSpaceOnUse"><stop offset="0" stop-color="#ffdbd9"/><stop offset="1" stop-color="#737d8d"/></linearGradient><linearGradient id="linear-gradient-4" x1="157.72" y1="888.99" x2="961.16" y2="888.99" xlink:href="#linear-gradient-3"/><clipPath id="clip-path-3"><path class="cls-1" d="M146.39,369.67V677.08a104.54,104.54,0,0,0,57.7,93.46L476.58,907.11a104.53,104.53,0,0,0,93.69,0L842.76,770.54a104.55,104.55,0,0,0,57.69-93.46V369.67A104.54,104.54,0,0,0,844.22,277L571.73,135a104.56,104.56,0,0,0-96.61,0L202.63,277A104.55,104.55,0,0,0,146.39,369.67Z"/></clipPath></defs><g class="cls-2"><g id="Layer_1" data-name="Layer 1"><path class="cls-3" d="M146.39,367.91v311a101.65,101.65,0,0,0,56.1,90.87l275.39,138a101.69,101.69,0,0,0,91.09,0l275.39-138a101.66,101.66,0,0,0,56.09-90.87v-311a101.61,101.61,0,0,0-54.67-90.13L570.39,134.28a101.64,101.64,0,0,0-93.93,0l-275.4,143.5A101.66,101.66,0,0,0,146.39,367.91Z"/><g class="cls-4"><g class="cls-5"><polyline class="cls-6" points="523.42 1010.25 523.42 1002.32 523.42 503.88 898.65 306.98 994.98 361.69 960.1 838.99"/><polygon class="cls-7" points="523.42 959.51 523.42 503.88 97.47 274.47 97.47 859.61 523.42 959.51"/></g></g><g class="cls-8"><path class="cls-9" d="M169.35,816.79,305.72,712.31l133.2-54.09,12.69,80.88-7.79,92.61v66.48l7.79,40.17,128.6-2.68L565.78,806.22l47.85-117.88,88.52-23.78L819.5,592l35.94,207.91L597.5,946.26s-153.29,49.19-158.58,49.19-214.6-49.19-214.6-49.19Z"/></g><path class="cls-10" d="M417,730.61a236.75,236.75,0,0,1,37.32-16.45l-2.89,83L213.85,927.33a37.44,37.44,0,0,1-36-65.67Z"/><path class="cls-11" d="M893.84,905.21a37.44,37.44,0,0,1-50.59,15.64L604.92,795.07a162.36,162.36,0,0,0-23.2-10l2.51-77.12a235.7,235.7,0,0,1,55.63,20.91L878.2,854.63A37.43,37.43,0,0,1,893.84,905.21Z"/><path class="cls-12" d="M933.67,847v60.7a30.11,30.11,0,0,1-28.25,30l-138.5,8.5c-16.24,1-22.55-20.73-8.3-28.58l152.43-84A15.25,15.25,0,0,1,933.67,847Z"/><g class="cls-13"><polygon class="cls-14" points="813.62 779.26 836.41 755.9 827.96 591.97 642.45 673.32 662.34 699.93 813.62 779.26"/><polygon class="cls-15" points="213.98 533.48 226.79 744.9 237.31 787.19 443.82 679.3 443.82 580.7 391.71 578.58 356.47 606.77 309.4 559.95 247.23 491.19 213.98 533.48"/><line class="cls-16" x1="580.21" y1="705.75" x2="845.93" y2="567.29"/><path class="cls-17" d="M214,795.47V479c0-16.74,22-22.88,30.68-8.54l99.12,137,77.7-44.42A24.83,24.83,0,0,1,455.84,586v308.5"/><line class="cls-18" x1="580.21" y1="529.91" x2="580.21" y2="935.68"/><line class="cls-18" x1="845.93" y1="402.56" x2="845.93" y2="854.5"/><path class="cls-19" d="M256,311,501.68,184.49a47.62,47.62,0,0,1,44.45.45L704.62,270.6c33.63,17.68,33.55,65.87-.15,83.42h0a155,155,0,0,1-143.35,0L455.84,296.44s124.37,76.35,70.48,158.81"/><line class="cls-19" x1="370.54" y1="251.99" x2="455.84" y2="296.44"/></g></g></g></svg>