<svg xmlns="http://www.w3.org/2000/svg" xmlns:xlink="http://www.w3.org/1999/xlink" viewBox="0 0 1080 1080"><defs><style>.cls-1,.cls-16,.cls-17,.cls-18,.cls-19{fill:none;}.cls-2{isolation:isolate;}.cls-3{fill:url(#linear-gradient);}.cls-4{mix-blend-mode:multiply;}.cls-5{clip-path:url(#clip-path);}.cls-6{fill:#3f8749;}.cls-7{fill:#7bd35d;}.cls-8{clip-path:url(#clip-path-2);}.cls-9{fill:#547249;}.cls-10{fill:url(#linear-gradient-2);}.cls-11{fill:url(#linear-gradient-3);}.cls-12{fill:url(#linear-gradient-4);}.cls-13{clip-path:url(#clip-path-3);}.cls-14{fill:#2d4931;}.cls-15{fill:#36593a;}.cls-16,.cls-18{stroke:#c4e0c7;}.cls-16{stroke-miterlimit:10;}.cls-16,.cls-17,.cls-18,.cls-19{stroke-width:60.06px;}.cls-17{stroke:#ccf0ce;}.cls-17,.cls-18,.cls-19{stroke-linecap:round;stroke-linejoin:round;}.cls-19{stroke:#d6f9d8;}</style><linearGradient id="linear-gradient" x1="46.89" y1="841.92" x2="382.06" y2="622.58" gradientUnits="userSpaceOnUse"><stop offset="0.01" stop-color="#fff"/><stop offset="1" stop-color="#55b262"/></linearGradient><clipPath id="clip-path"><path class="cls-1" d="M81.76,335.18V709.31a122.27,122.27,0,0,0,67.49,109.32L480.59,984.7a122.25,122.25,0,0,0,109.59,0L921.51,818.63A122.28,122.28,0,0,0,989,709.31V335.18a122.31,122.31,0,0,0-65.78-108.45L591.89,54.08a122.29,122.29,0,0,0-113,0L147.54,226.73A122.31,122.31,0,0,0,81.76,335.18Z"/></clipPath><clipPath id="clip-path-2"><path class="cls-1" d="M81.69,337.26V707.19a125.8,125.8,0,0,0,69.43,112.46L479,984a125.79,125.79,0,0,0,112.73,0l327.9-164.35a125.8,125.8,0,0,0,69.43-112.46V337.26A125.8,125.8,0,0,0,921.42,225.7L593.52,54.84a125.83,125.83,0,0,0-116.27,0L149.35,225.7A125.8,125.8,0,0,0,81.69,337.26Z"/></clipPath><linearGradient id="linear-gradient-2" x1="95.39" y1="882.78" x2="1062.04" y2="882.78" gradientUnits="userSpaceOnUse"><stop offset="0" stop-color="#5dffbb"/><stop offset="1" stop-color="#51ab5e"/></linearGradient><linearGradient id="linear-gradient-3" x1="95.39" y1="874.97" x2="1062.04" y2="874.97" xlink:href="#linear-gradient-2"/><linearGradient id="linear-gradient-4" x1="95.39" y1="962.11" x2="1062.04" y2="962.11" xlink:href="#linear-gradient-2"/><clipPath id="clip-path-3"><path class="cls-1" d="M81.76,337.3V707.15A125.79,125.79,0,0,0,151.18,819.6L479,983.92a125.75,125.75,0,0,0,112.71,0L919.59,819.6A125.79,125.79,0,0,0,989,707.16V337.3a125.79,125.79,0,0,0-67.66-111.55L593.51,54.92a125.79,125.79,0,0,0-116.25,0L149.42,225.75A125.79,125.79,0,0,0,81.76,337.3Z"/></clipPath></defs><g class="cls-2"><g id="Layer_1" data-name="Layer 1"><path class="cls-3" d="M81.76,335.18V709.31a122.27,122.27,0,0,0,67.49,109.32L480.59,984.7a122.25,122.25,0,0,0,109.59,0L921.51,818.63A122.28,122.28,0,0,0,989,709.31V335.18a122.31,122.31,0,0,0-65.78-108.45L591.89,54.08a122.29,122.29,0,0,0-113,0L147.54,226.73A122.31,122.31,0,0,0,81.76,335.18Z"/><g class="cls-4"><g class="cls-5"><polyline class="cls-6" points="535.38 1108.01 535.38 1098.47 535.38 498.76 986.84 261.87 1102.74 327.69 1060.77 901.96"/><polygon class="cls-7" points="535.38 1046.95 535.38 498.76 22.9 222.76 22.9 926.76 535.38 1046.95"/></g></g><g class="cls-8"><path class="cls-9" d="M109.39,875.25,273.46,749.54l160.26-65.08L449,781.77,439.62,893.2v80l9.36,48.34,154.73-3.24L586.35,862.53,643.91,720.7l106.51-28.61,141.19-87.33L934.85,854.9,624.51,1031s-184.43,59.18-190.79,59.18S175.52,1031,175.52,1031Z"/></g><path class="cls-10" d="M407.33,771.56a283.82,283.82,0,0,1,44.9-19.79l-3.47,99.81L162.92,1008.24a45,45,0,0,1-43.3-79Z"/><path class="cls-11" d="M981.05,981.63a45,45,0,0,1-60.86,18.81L633.44,849.12a193.83,193.83,0,0,0-27.92-12l3-92.8a283.27,283.27,0,0,1,66.94,25.17L962.23,920.77A45,45,0,0,1,981.05,981.63Z"/><path class="cls-12" d="M1029,911.58v73a36.2,36.2,0,0,1-34,36.14L828.34,1031c-19.54,1.2-27.12-24.94-10-34.39l183.4-101.09A18.35,18.35,0,0,1,1029,911.58Z"/><g class="cls-13"><polygon class="cls-14" points="884.53 830.09 911.96 801.99 901.78 604.76 678.59 702.63 702.52 734.64 884.53 830.09"/><polygon class="cls-15" points="163.08 534.38 178.49 788.76 191.15 839.63 439.62 709.82 439.62 591.19 376.91 588.64 334.51 622.56 277.88 566.24 203.08 483.5 163.08 534.38"/><line class="cls-16" x1="603.71" y1="741.65" x2="923.4" y2="575.06"/><path class="cls-17" d="M163.08,849.59V468.86c0-20.15,26.5-27.52,36.91-10.28L319.25,623.41,412.73,570a29.87,29.87,0,0,1,41.34,27.59V968.73"/><line class="cls-18" x1="603.71" y1="530.09" x2="603.71" y2="1018.28"/><line class="cls-18" x1="923.4" y1="376.87" x2="923.4" y2="920.62"/><path class="cls-19" d="M213.63,266.65l295.6-152.16a57.34,57.34,0,0,1,53.47.54L753.39,218.1c40.47,21.27,40.36,79.25-.18,100.37h0a186.52,186.52,0,0,1-172.47-.05L454.07,249.19s149.64,91.86,84.79,191.07"/><line class="cls-19" x1="351.44" y1="195.71" x2="454.07" y2="249.19"/></g></g></g></svg>