<svg xmlns="http://www.w3.org/2000/svg" xmlns:xlink="http://www.w3.org/1999/xlink" viewBox="0 0 1920 1080"><defs><style>.cls-1,.cls-16,.cls-17,.cls-18{fill:none;}.cls-2{isolation:isolate;}.cls-3{fill:#fff;stroke:#000;}.cls-16,.cls-3{stroke-miterlimit:10;}.cls-4{fill:url(#linear-gradient);}.cls-5{mix-blend-mode:multiply;}.cls-6{clip-path:url(#clip-path);}.cls-7{fill:#707070;}.cls-8{fill:#bcbcbc;}.cls-9{clip-path:url(#clip-path-2);}.cls-10{fill:#005b50;}.cls-11{fill:url(#linear-gradient-2);}.cls-12{fill:url(#linear-gradient-3);}.cls-13{clip-path:url(#clip-path-3);}.cls-14{fill:#02382e;}.cls-15{fill:#014238;}.cls-16,.cls-18{stroke:#ced8dd;}.cls-16,.cls-17,.cls-18{stroke-width:20.64px;}.cls-17{stroke:#e6eaed;}.cls-17,.cls-18{stroke-linecap:round;stroke-linejoin:round;}.cls-19{fill:url(#linear-gradient-4);}.cls-20{font-size:114.18px;}.cls-20,.cls-21{fill:#1c2a39;font-family:Vazirmatn-Black, Vazirmatn;font-weight:800;}.cls-21{font-size:63.73px;}</style><linearGradient id="linear-gradient" x1="655.44" y1="505.67" x2="944.49" y2="598.85" gradientUnits="userSpaceOnUse"><stop offset="0.01" stop-color="#2ecc71"/><stop offset="1" stop-color="#009b90"/></linearGradient><clipPath id="clip-path"><path class="cls-1" d="M588.24,471.1V599.69a42,42,0,0,0,23.2,37.58l113.88,57.08a42,42,0,0,0,37.67,0l113.88-57.08a42,42,0,0,0,23.19-37.58V471.1a42,42,0,0,0-22.6-37.27L763.58,374.49a42.05,42.05,0,0,0-38.85,0L610.85,433.83A42,42,0,0,0,588.24,471.1Z"/></clipPath><clipPath id="clip-path-2"><path class="cls-1" d="M588.22,471.82V599a43.23,43.23,0,0,0,23.86,38.66l112.7,56.49a43.25,43.25,0,0,0,38.75,0l112.7-56.49A43.23,43.23,0,0,0,900.09,599V471.82a43.21,43.21,0,0,0-23.26-38.34l-112.7-58.73a43.26,43.26,0,0,0-40,0l-112.7,58.73A43.22,43.22,0,0,0,588.22,471.82Z"/></clipPath><linearGradient id="linear-gradient-2" x1="592.93" y1="659.32" x2="925.17" y2="659.32" gradientUnits="userSpaceOnUse"><stop offset="0" stop-color="#ff926b"/><stop offset="1" stop-color="#d73c2c"/></linearGradient><linearGradient id="linear-gradient-3" x1="592.93" y1="656.63" x2="925.17" y2="656.63" xlink:href="#linear-gradient-2"/><clipPath id="clip-path-3"><path class="cls-1" d="M588.24,471.83V599A43.24,43.24,0,0,0,612.1,637.6l112.68,56.48a43.23,43.23,0,0,0,38.74,0L876.21,637.6A43.23,43.23,0,0,0,900.06,599V471.83a43.24,43.24,0,0,0-23.25-38.34L764.13,374.78a43.24,43.24,0,0,0-40,0L611.49,433.49A43.24,43.24,0,0,0,588.24,471.83Z"/></clipPath><linearGradient id="linear-gradient-4" x1="592.93" y1="686.58" x2="925.17" y2="686.58" xlink:href="#linear-gradient-2"/></defs><g class="cls-2"><g id="Layer_1" data-name="Layer 1"><rect class="cls-3" width="1920" height="1080"/><path class="cls-4" d="M588.24,471.1V599.69a42,42,0,0,0,23.2,37.58l113.88,57.08a42,42,0,0,0,37.67,0l113.88-57.08a42,42,0,0,0,23.19-37.58V471.1a42,42,0,0,0-22.6-37.27L763.58,374.49a42.05,42.05,0,0,0-38.85,0L610.85,433.83A42,42,0,0,0,588.24,471.1Z"/><g class="cls-5"><g class="cls-6"><polyline class="cls-7" points="744.15 736.73 744.15 733.45 744.15 527.33 899.32 445.91 939.16 468.53 924.73 665.91"/><polygon class="cls-8" points="744.15 715.74 744.15 527.33 568.01 432.47 568.01 674.43 744.15 715.74"/></g></g><g class="cls-9"><path class="cls-10" d="M597.74,656.73l56.39-43.21,55.08-22.37,5.25,33.45-3.22,38.3v27.49L714.46,707l53.18-1.11-6-53.53,19.78-48.75,36.61-9.83,48.53-30,14.86,86L774.78,710.27s-63.38,20.34-65.57,20.34-88.74-20.34-88.74-20.34Z"/></g><path class="cls-11" d="M700.14,621.09a97.58,97.58,0,0,1,15.43-6.8l-1.19,34.3-98.24,53.85a15.49,15.49,0,0,1-14.89-27.16Z"/><path class="cls-12" d="M897.33,693.29a15.49,15.49,0,0,1-20.92,6.47l-98.56-52a66.23,66.23,0,0,0-9.59-4.14l1-31.9a97.72,97.72,0,0,1,23,8.65l98.56,52A15.49,15.49,0,0,1,897.33,693.29Z"/><g class="cls-13"><polygon class="cls-14" points="864.16 641.21 873.58 631.55 870.09 563.76 793.37 597.4 801.6 608.4 864.16 641.21"/><polygon class="cls-15" points="616.19 539.57 621.49 627 625.84 644.49 711.24 599.87 711.24 559.1 689.68 558.22 675.11 569.88 655.65 550.52 629.94 522.08 616.19 539.57"/><line class="cls-16" x1="767.64" y1="610.81" x2="877.52" y2="553.55"/><path class="cls-17" d="M616.19,647.91V517.05a6.84,6.84,0,0,1,12.69-3.53l41,56.65L702,551.8a10.27,10.27,0,0,1,14.21,9.48V688.86"/><line class="cls-18" x1="767.64" y1="538.1" x2="767.64" y2="705.89"/><line class="cls-18" x1="877.52" y1="485.43" x2="877.52" y2="672.32"/><path class="cls-17" d="M633.56,447.55l101.6-52.3a19.72,19.72,0,0,1,18.38.19l65.54,35.42a19.47,19.47,0,0,1-.06,34.5h0a64.11,64.11,0,0,1-59.28,0l-43.53-23.79s51.43,31.57,29.14,65.67"/><line class="cls-17" x1="680.93" y1="423.17" x2="716.21" y2="441.55"/></g><path class="cls-19" d="M913.8,669.21v25.11a12.45,12.45,0,0,1-11.68,12.42l-57.28,3.51a6.31,6.31,0,0,1-3.43-11.82l63-34.74A6.3,6.3,0,0,1,913.8,669.21Z"/><text class="cls-20" transform="translate(972.2 535.06)">MHR-V</text><text class="cls-21" transform="translate(975.53 604.8)">Rust Version</text></g></g></svg>