<svg xmlns="http://www.w3.org/2000/svg" xmlns:xlink="http://www.w3.org/1999/xlink" viewBox="0 0 1920 1080"><defs><style>.cls-1,.cls-16,.cls-17,.cls-18,.cls-19{fill:none;}.cls-2{isolation:isolate;}.cls-3{fill:url(#linear-gradient);}.cls-4{mix-blend-mode:multiply;}.cls-5{clip-path:url(#clip-path);}.cls-6{fill:#3f8749;}.cls-21,.cls-7{fill:#7bd35d;}.cls-8{clip-path:url(#clip-path-2);}.cls-9{fill:#547249;}.cls-10{fill:url(#linear-gradient-2);}.cls-11{fill:url(#linear-gradient-3);}.cls-12{fill:url(#linear-gradient-4);}.cls-13{clip-path:url(#clip-path-3);}.cls-14,.cls-20{fill:#2d4931;}.cls-15{fill:#36593a;}.cls-16,.cls-18{stroke:#c4e0c7;}.cls-16{stroke-miterlimit:10;}.cls-16,.cls-17,.cls-18,.cls-19{stroke-width:20.64px;}.cls-17{stroke:#ccf0ce;}.cls-17,.cls-18,.cls-19{stroke-linecap:round;stroke-linejoin:round;}.cls-19{stroke:#d6f9d8;}.cls-20{font-size:114.18px;}.cls-20,.cls-21{font-family:Vazirmatn-Black, Vazirmatn;font-weight:800;}.cls-21{font-size:63.73px;}</style><linearGradient id="linear-gradient" x1="563.08" y1="645.27" x2="678.28" y2="569.88" gradientUnits="userSpaceOnUse"><stop offset="0.01" stop-color="#fff"/><stop offset="1" stop-color="#55b262"/></linearGradient><clipPath id="clip-path"><path class="cls-1" d="M575.06,471.1V599.69a42,42,0,0,0,23.2,37.58l113.88,57.08a42,42,0,0,0,37.67,0l113.88-57.08a42,42,0,0,0,23.19-37.58V471.1a42,42,0,0,0-22.6-37.27L750.4,374.49a42.05,42.05,0,0,0-38.85,0L597.67,433.83A42,42,0,0,0,575.06,471.1Z"/></clipPath><clipPath id="clip-path-2"><path class="cls-1" d="M575,471.82V599a43.23,43.23,0,0,0,23.86,38.66l112.7,56.49a43.25,43.25,0,0,0,38.75,0l112.7-56.49A43.25,43.25,0,0,0,886.91,599V471.82a43.21,43.21,0,0,0-23.26-38.34L751,374.75a43.26,43.26,0,0,0-40,0l-112.7,58.73A43.22,43.22,0,0,0,575,471.82Z"/></clipPath><linearGradient id="linear-gradient-2" x1="579.75" y1="659.32" x2="911.99" y2="659.32" gradientUnits="userSpaceOnUse"><stop offset="0" stop-color="#5dffbb"/><stop offset="1" stop-color="#51ab5e"/></linearGradient><linearGradient id="linear-gradient-3" x1="579.75" y1="656.63" x2="911.99" y2="656.63" xlink:href="#linear-gradient-2"/><linearGradient id="linear-gradient-4" x1="579.75" y1="686.58" x2="911.99" y2="686.58" xlink:href="#linear-gradient-2"/><clipPath id="clip-path-3"><path class="cls-1" d="M575.06,471.83V599a43.24,43.24,0,0,0,23.86,38.65L711.6,694.08a43.23,43.23,0,0,0,38.74,0L863,637.6A43.23,43.23,0,0,0,886.88,599V471.83a43.24,43.24,0,0,0-23.25-38.34L751,374.78a43.24,43.24,0,0,0-40,0L598.31,433.49A43.24,43.24,0,0,0,575.06,471.83Z"/></clipPath></defs><g class="cls-2"><g id="Layer_1" data-name="Layer 1"><path class="cls-3" d="M575.06,471.1V599.69a42,42,0,0,0,23.2,37.58l113.88,57.08a42,42,0,0,0,37.67,0l113.88-57.08a42,42,0,0,0,23.19-37.58V471.1a42,42,0,0,0-22.6-37.27L750.4,374.49a42.05,42.05,0,0,0-38.85,0L597.67,433.83A42,42,0,0,0,575.06,471.1Z"/><g class="cls-4"><g class="cls-5"><polyline class="cls-6" points="730.97 736.73 730.97 733.45 730.97 527.33 886.14 445.91 925.98 468.53 911.55 665.91"/><polygon class="cls-7" points="730.97 715.74 730.97 527.33 554.83 432.47 554.83 674.43 730.97 715.74"/></g></g><g class="cls-8"><path class="cls-9" d="M584.56,656.73,641,613.52,696,591.15l5.25,33.45-3.22,38.3v27.49L701.28,707l53.18-1.11-6-53.53,19.78-48.75,36.61-9.83,48.53-30,14.86,86L761.6,710.27S698.22,730.61,696,730.61s-88.74-20.34-88.74-20.34Z"/></g><path class="cls-10" d="M687,621.09a97.58,97.58,0,0,1,15.43-6.8l-1.19,34.3L603,702.44a15.49,15.49,0,0,1-14.89-27.16Z"/><path class="cls-11" d="M884.15,693.29a15.49,15.49,0,0,1-20.92,6.47l-98.56-52a66.23,66.23,0,0,0-9.59-4.14l1-31.9a97.72,97.72,0,0,1,23,8.65l98.56,52A15.49,15.49,0,0,1,884.15,693.29Z"/><path class="cls-12" d="M900.62,669.21v25.11a12.45,12.45,0,0,1-11.68,12.42l-57.28,3.51a6.31,6.31,0,0,1-3.43-11.82l63-34.74A6.3,6.3,0,0,1,900.62,669.21Z"/><g class="cls-13"><polygon class="cls-14" points="850.98 641.21 860.4 631.55 856.9 563.76 780.19 597.4 788.42 608.4 850.98 641.21"/><polygon class="cls-15" points="603.01 539.57 608.31 627 612.66 644.49 698.06 599.87 698.06 559.1 676.5 558.22 661.93 569.88 642.47 550.52 616.76 522.08 603.01 539.57"/><line class="cls-16" x1="754.46" y1="610.81" x2="864.34" y2="553.55"/><path class="cls-17" d="M603,647.91V517.05a6.84,6.84,0,0,1,12.69-3.53l41,56.65,32.13-18.37A10.27,10.27,0,0,1,703,561.28V688.86"/><line class="cls-18" x1="754.46" y1="538.1" x2="754.46" y2="705.89"/><line class="cls-18" x1="864.34" y1="485.43" x2="864.34" y2="672.32"/><path class="cls-19" d="M620.38,447.55,722,395.25a19.72,19.72,0,0,1,18.38.19l65.54,35.42a19.47,19.47,0,0,1-.06,34.5h0a64.11,64.11,0,0,1-59.28,0L703,441.55s51.43,31.57,29.14,65.67"/><line class="cls-19" x1="667.75" y1="423.17" x2="703.03" y2="441.55"/></g><text class="cls-20" transform="translate(958.99 534.52)">MHR-V</text><text class="cls-21" transform="translate(962.32 604.25)">Rust Version</text></g></g></svg>