<svg xmlns="http://www.w3.org/2000/svg" xmlns:xlink="http://www.w3.org/1999/xlink" viewBox="0 0 1080 1080"><defs><style>.cls-1,.cls-16,.cls-17,.cls-18{fill:none;}.cls-2{isolation:isolate;}.cls-3{fill:#fff;stroke:#000;}.cls-16,.cls-3{stroke-miterlimit:10;}.cls-4{fill:url(#linear-gradient);}.cls-5{mix-blend-mode:multiply;}.cls-6{clip-path:url(#clip-path);}.cls-7{fill:#707070;}.cls-8{fill:#bcbcbc;}.cls-9{clip-path:url(#clip-path-2);}.cls-10{fill:#005b50;}.cls-11{fill:url(#linear-gradient-2);}.cls-12{fill:url(#linear-gradient-3);}.cls-13{clip-path:url(#clip-path-3);}.cls-14{fill:#02382e;}.cls-15{fill:#014238;}.cls-16,.cls-18{stroke:#ced8dd;}.cls-16,.cls-17,.cls-18{stroke-width:22.45px;}.cls-17{stroke:#e6eaed;}.cls-17,.cls-18{stroke-linecap:round;stroke-linejoin:round;}.cls-19{fill:url(#linear-gradient-4);}.cls-20{font-size:130.45px;}.cls-20,.cls-21{fill:#1c2a39;font-family:Vazirmatn-Black, Vazirmatn;font-weight:800;}.cls-21{font-size:72.82px;}</style><linearGradient id="linear-gradient" x1="436.07" y1="399.59" x2="750.41" y2="500.93" gradientUnits="userSpaceOnUse"><stop offset="0.01" stop-color="#2ecc71"/><stop offset="1" stop-color="#009b90"/></linearGradient><clipPath id="clip-path"><path class="cls-1" d="M363,362V501.84a45.72,45.72,0,0,0,25.23,40.87l123.84,62.07a45.73,45.73,0,0,0,41,0l123.84-62.07a45.72,45.72,0,0,0,25.23-40.87V362a45.71,45.71,0,0,0-24.59-40.54L553.67,256.94a45.7,45.7,0,0,0-42.25,0L387.58,321.47A45.71,45.71,0,0,0,363,362Z"/></clipPath><clipPath id="clip-path-2"><path class="cls-1" d="M363,362.78V501.05a47,47,0,0,0,25.95,42l122.56,61.43a47,47,0,0,0,42.13,0l122.56-61.43a47,47,0,0,0,26-42V362.79a47,47,0,0,0-25.29-41.7L554.27,257.22a47,47,0,0,0-43.45,0L388.26,321.09A47,47,0,0,0,363,362.78Z"/></clipPath><linearGradient id="linear-gradient-2" x1="368.09" y1="566.68" x2="729.39" y2="566.68" gradientUnits="userSpaceOnUse"><stop offset="0" stop-color="#ff926b"/><stop offset="1" stop-color="#d73c2c"/></linearGradient><linearGradient id="linear-gradient-3" x1="368.09" y1="563.76" x2="729.39" y2="563.76" xlink:href="#linear-gradient-2"/><clipPath id="clip-path-3"><path class="cls-1" d="M363,362.8V501a47,47,0,0,0,25.95,42l122.54,61.42a47,47,0,0,0,42.13,0l122.54-61.42a47,47,0,0,0,26-42V362.8a47,47,0,0,0-25.29-41.69L554.27,257.25a47,47,0,0,0-43.45,0L388.28,321.11A47,47,0,0,0,363,362.8Z"/></clipPath><linearGradient id="linear-gradient-4" x1="368.09" y1="596.33" x2="729.39" y2="596.33" xlink:href="#linear-gradient-2"/></defs><g class="cls-2"><g id="Layer_1" data-name="Layer 1"><rect class="cls-3" width="1080" height="1080"/><path class="cls-4" d="M363,362V501.84a45.72,45.72,0,0,0,25.23,40.87l123.84,62.07a45.73,45.73,0,0,0,41,0l123.84-62.07a45.72,45.72,0,0,0,25.23-40.87V362a45.71,45.71,0,0,0-24.59-40.54L553.67,256.94a45.7,45.7,0,0,0-42.25,0L387.58,321.47A45.71,45.71,0,0,0,363,362Z"/><g class="cls-5"><g class="cls-6"><polyline class="cls-7" points="532.55 650.87 532.55 647.3 532.55 423.15 701.29 334.61 744.61 359.21 728.92 573.85"/><polygon class="cls-8" points="532.55 628.05 532.55 423.15 340.99 319.99 340.99 583.12 532.55 628.05"/></g></g><g class="cls-9"><path class="cls-10" d="M373.32,563.87l61.33-47,59.9-24.32,5.7,36.37-3.5,41.65v29.89l3.5,18.07,57.83-1.21-6.49-58.22,21.52-53,39.81-10.69,52.77-32.64,16.16,93.49-116,65.83s-68.94,22.12-71.31,22.12S398,622.09,398,622.09Z"/></g><path class="cls-11" d="M484.68,525.11a106.47,106.47,0,0,1,16.78-7.39L500.17,555,393.33,613.58A16.84,16.84,0,0,1,377.14,584Z"/><path class="cls-12" d="M699.12,603.63a16.83,16.83,0,0,1-22.75,7L569.19,554.1a72.92,72.92,0,0,0-10.43-4.5l1.13-34.68a105.79,105.79,0,0,1,25,9.4l107.18,56.56A16.84,16.84,0,0,1,699.12,603.63Z"/><g class="cls-13"><polygon class="cls-14" points="663.05 546.99 673.3 536.49 669.49 462.77 586.07 499.35 595.01 511.31 663.05 546.99"/><polygon class="cls-15" points="393.39 436.46 399.15 531.54 403.88 550.55 496.75 502.04 496.75 457.69 473.31 456.74 457.46 469.42 436.3 448.37 408.34 417.44 393.39 436.46"/><line class="cls-16" x1="558.08" y1="513.93" x2="677.58" y2="451.67"/><path class="cls-17" d="M393.39,554.28V412a7.43,7.43,0,0,1,13.79-3.84l44.58,61.61,34.94-20a11.17,11.17,0,0,1,15.45,10.32V598.81"/><line class="cls-18" x1="558.08" y1="434.86" x2="558.08" y2="617.33"/><line class="cls-18" x1="677.58" y1="377.59" x2="677.58" y2="580.83"/><path class="cls-17" d="M412.28,336.39l110.49-56.87a21.42,21.42,0,0,1,20,.2L614,318.24a21.17,21.17,0,0,1-.07,37.52h0a69.69,69.69,0,0,1-64.46,0l-47.35-25.87s55.93,34.33,31.7,71.41"/><line class="cls-17" x1="463.79" y1="309.88" x2="502.15" y2="329.87"/></g><path class="cls-19" d="M717,577.45v27.3a13.52,13.52,0,0,1-12.7,13.5L642,622.08c-7.3.44-10.13-9.33-3.73-12.86l68.55-37.78A6.86,6.86,0,0,1,717,577.45Z"/><text class="cls-20" transform="translate(315.23 787.12)">MHR-V</text><text class="cls-21" transform="translate(319.03 866.8)">Rust Version</text></g></g></svg>