<svg xmlns="http://www.w3.org/2000/svg" xmlns:xlink="http://www.w3.org/1999/xlink" viewBox="0 0 1080 1080"><defs><style>.cls-1,.cls-17,.cls-18,.cls-19,.cls-20{fill:none;}.cls-2{isolation:isolate;}.cls-3{fill:url(#radial-gradient);}.cls-4{fill:url(#linear-gradient);}.cls-5{mix-blend-mode:multiply;}.cls-6{clip-path:url(#clip-path);}.cls-7{fill:#56616d;}.cls-8{fill:#b5b8c2;}.cls-9{clip-path:url(#clip-path-2);}.cls-10{fill:#3b5257;}.cls-11{fill:url(#linear-gradient-2);}.cls-12{fill:url(#linear-gradient-3);}.cls-13{fill:url(#linear-gradient-4);}.cls-14{clip-path:url(#clip-path-3);}.cls-15{fill:#263537;}.cls-16{fill:#2e4043;}.cls-17,.cls-19{stroke:#c1ccd5;}.cls-17{stroke-miterlimit:10;}.cls-17,.cls-18,.cls-19,.cls-20{stroke-width:23.13px;}.cls-18{stroke:#dce5eb;}.cls-18,.cls-19,.cls-20{stroke-linecap:round;stroke-linejoin:round;}.cls-20{stroke:#ebf3f7;}.cls-21{font-size:127.95px;}.cls-21,.cls-22{fill:#eaeef0;font-family:Vazirmatn-Black, Vazirmatn;font-weight:800;}.cls-22{font-size:71.42px;}</style><radialGradient id="radial-gradient" cx="-68.13" cy="119.92" r="1113.04" gradientUnits="userSpaceOnUse"><stop offset="0.01" stop-color="#8b99a8"/><stop offset="1" stop-color="#5c6a79"/></radialGradient><linearGradient id="linear-gradient" x1="352.45" y1="529.71" x2="481.54" y2="445.23" gradientUnits="userSpaceOnUse"><stop offset="0.01" stop-color="#fff"/><stop offset="1" stop-color="#7e8897"/></linearGradient><clipPath id="clip-path"><path class="cls-1" d="M365.88,334.54v144.1a47.09,47.09,0,0,0,26,42.1l127.62,64a47.13,47.13,0,0,0,42.2,0l127.62-64a47.09,47.09,0,0,0,26-42.1V334.54A47.09,47.09,0,0,0,690,292.77l-127.61-66.5a47.14,47.14,0,0,0-43.53,0l-127.62,66.5A47.09,47.09,0,0,0,365.88,334.54Z"/></clipPath><clipPath id="clip-path-2"><path class="cls-1" d="M365.85,335.34V477.82a48.46,48.46,0,0,0,26.74,43.32l126.29,63.3a48.5,48.5,0,0,0,43.42,0l126.29-63.3a48.46,48.46,0,0,0,26.74-43.32V335.34a48.43,48.43,0,0,0-26.06-43L563,226.57a48.46,48.46,0,0,0-44.78,0L391.91,292.38A48.43,48.43,0,0,0,365.85,335.34Z"/></clipPath><linearGradient id="linear-gradient-2" x1="371.13" y1="545.45" x2="743.43" y2="545.45" gradientUnits="userSpaceOnUse"><stop offset="0" stop-color="#e0e7ec"/><stop offset="1" stop-color="#737d8d"/></linearGradient><linearGradient id="linear-gradient-3" x1="371.13" y1="542.44" x2="743.43" y2="542.44" gradientUnits="userSpaceOnUse"><stop offset="0" stop-color="#ffdbd9"/><stop offset="1" stop-color="#737d8d"/></linearGradient><linearGradient id="linear-gradient-4" x1="371.13" y1="576" x2="743.43" y2="576" xlink:href="#linear-gradient-3"/><clipPath id="clip-path-3"><path class="cls-1" d="M365.88,335.36V477.81a48.45,48.45,0,0,0,26.73,43.31l126.27,63.29a48.5,48.5,0,0,0,43.42,0l126.27-63.29a48.45,48.45,0,0,0,26.73-43.31V335.36a48.43,48.43,0,0,0-26-43L563,226.6a48.46,48.46,0,0,0-44.78,0L391.93,292.39A48.46,48.46,0,0,0,365.88,335.36Z"/></clipPath></defs><g class="cls-2"><g id="Layer_1" data-name="Layer 1"><rect class="cls-3" width="1080" height="1080"/><path class="cls-4" d="M365.88,334.54v144.1a47.09,47.09,0,0,0,26,42.1l127.62,64a47.13,47.13,0,0,0,42.2,0l127.62-64a47.09,47.09,0,0,0,26-42.1V334.54A47.09,47.09,0,0,0,690,292.77l-127.61-66.5a47.14,47.14,0,0,0-43.53,0l-127.62,66.5A47.09,47.09,0,0,0,365.88,334.54Z"/><g class="cls-5"><g class="cls-6"><polyline class="cls-7" points="540.59 632.2 540.59 628.52 540.59 397.55 714.47 306.31 759.11 331.66 742.94 552.84"/><polygon class="cls-8" points="540.59 608.68 540.59 397.55 343.2 291.24 343.2 562.39 540.59 608.68"/></g></g><g class="cls-9"><path class="cls-10" d="M376.52,542.55l63.19-48.42,61.72-25.06,5.88,37.48-3.61,42.91v30.81l3.61,18.62,59.6-1.25-6.69-60L582.39,483l41-11,54.38-33.64,16.66,96.34L574.92,602.55s-71,22.79-73.49,22.79S402,602.55,402,602.55Z"/></g><path class="cls-11" d="M491.27,502.62A109.44,109.44,0,0,1,508.56,495l-1.33,38.44L397.14,593.77a17.35,17.35,0,1,1-16.68-30.43Z"/><path class="cls-12" d="M712.24,583.52a17.34,17.34,0,0,1-23.44,7.25L578.36,532.49a75.26,75.26,0,0,0-10.76-4.64l1.17-35.74a109.43,109.43,0,0,1,25.78,9.69L705,560.08A17.36,17.36,0,0,1,712.24,583.52Z"/><path class="cls-13" d="M730.7,556.54v28.13a14,14,0,0,1-13.09,13.92l-64.19,3.94c-7.52.46-10.44-9.6-3.84-13.24l70.64-38.94A7.07,7.07,0,0,1,730.7,556.54Z"/><g class="cls-14"><polygon class="cls-15" points="675.07 525.16 685.63 514.33 681.71 438.37 595.75 476.07 604.96 488.39 675.07 525.16"/><polygon class="cls-16" points="397.19 411.26 403.13 509.24 408.01 528.83 503.7 478.83 503.7 433.14 479.55 432.16 463.22 445.23 441.41 423.53 412.6 391.67 397.19 411.26"/><line class="cls-17" x1="566.91" y1="491.09" x2="690.04" y2="426.93"/><path class="cls-18" d="M397.19,532.67V386a7.66,7.66,0,0,1,14.22-4l45.94,63.48,36-20.58a11.5,11.5,0,0,1,15.92,10.63v143"/><line class="cls-19" x1="566.91" y1="409.61" x2="566.91" y2="597.64"/><line class="cls-19" x1="690.04" y1="350.6" x2="690.04" y2="560.02"/><path class="cls-20" d="M416.66,308.14l113.86-58.6a22.09,22.09,0,0,1,20.59.21l73.45,39.7a21.82,21.82,0,0,1-.07,38.66h0a71.89,71.89,0,0,1-66.43,0l-48.79-26.67S566.91,336.8,541.93,375"/><line class="cls-20" x1="469.74" y1="280.82" x2="509.27" y2="301.42"/></g><text class="cls-21" transform="translate(339.36 771.53)">MHR-V</text><text class="cls-22" transform="translate(343.06 849.68)">Rust Version</text></g></g></svg>