<svg xmlns="http://www.w3.org/2000/svg" xmlns:xlink="http://www.w3.org/1999/xlink" viewBox="0 0 1080 1080"><defs><style>.cls-1,.cls-16,.cls-17,.cls-18,.cls-19{fill:none;}.cls-2{isolation:isolate;}.cls-3{fill:url(#linear-gradient);}.cls-4{mix-blend-mode:multiply;}.cls-5{clip-path:url(#clip-path);}.cls-6{fill:#3f8749;}.cls-21,.cls-7{fill:#7bd35d;}.cls-8{clip-path:url(#clip-path-2);}.cls-9{fill:#547249;}.cls-10{fill:url(#linear-gradient-2);}.cls-11{fill:url(#linear-gradient-3);}.cls-12{fill:url(#linear-gradient-4);}.cls-13{clip-path:url(#clip-path-3);}.cls-14,.cls-20{fill:#2d4931;}.cls-15{fill:#36593a;}.cls-16,.cls-18{stroke:#c4e0c7;}.cls-16{stroke-miterlimit:10;}.cls-16,.cls-17,.cls-18,.cls-19{stroke-width:25.08px;}.cls-17{stroke:#ccf0ce;}.cls-17,.cls-18,.cls-19{stroke-linecap:round;stroke-linejoin:round;}.cls-19{stroke:#d6f9d8;}.cls-20{font-size:138.71px;}.cls-20,.cls-21{font-family:Vazirmatn-Black, Vazirmatn;font-weight:800;}.cls-21{font-size:77.43px;}</style><linearGradient id="linear-gradient" x1="327.71" y1="563.4" x2="467.65" y2="471.82" gradientUnits="userSpaceOnUse"><stop offset="0.01" stop-color="#fff"/><stop offset="1" stop-color="#55b262"/></linearGradient><clipPath id="clip-path"><path class="cls-1" d="M342.27,351.81V508a51.06,51.06,0,0,0,28.18,45.65L508.79,623a51.11,51.11,0,0,0,45.76,0L692.9,553.68A51.08,51.08,0,0,0,721.08,508V351.81a51.07,51.07,0,0,0-27.47-45.28L555.27,234.45a51,51,0,0,0-47.19,0L369.73,306.53A51.06,51.06,0,0,0,342.27,351.81Z"/></clipPath><clipPath id="clip-path-2"><path class="cls-1" d="M342.23,352.69V507.14a52.53,52.53,0,0,0,29,47l136.92,68.62a52.49,52.49,0,0,0,47.07,0L692.12,554.1a52.53,52.53,0,0,0,29-47V352.69a52.54,52.54,0,0,0-28.25-46.59L555.94,234.76a52.55,52.55,0,0,0-48.54,0L370.49,306.1A52.53,52.53,0,0,0,342.23,352.69Z"/></clipPath><linearGradient id="linear-gradient-2" x1="347.96" y1="580.46" x2="751.57" y2="580.46" gradientUnits="userSpaceOnUse"><stop offset="0" stop-color="#5dffbb"/><stop offset="1" stop-color="#51ab5e"/></linearGradient><linearGradient id="linear-gradient-3" x1="347.96" y1="577.2" x2="751.57" y2="577.2" xlink:href="#linear-gradient-2"/><linearGradient id="linear-gradient-4" x1="347.96" y1="613.58" x2="751.57" y2="613.58" xlink:href="#linear-gradient-2"/><clipPath id="clip-path-3"><path class="cls-1" d="M342.27,352.7V507.13a52.52,52.52,0,0,0,29,47l136.89,68.61a52.53,52.53,0,0,0,47.06,0l136.89-68.61a52.53,52.53,0,0,0,29-47V352.7a52.5,52.5,0,0,0-28.25-46.57L555.94,234.8a52.49,52.49,0,0,0-48.54,0L370.52,306.13A52.48,52.48,0,0,0,342.27,352.7Z"/></clipPath></defs><g class="cls-2"><g id="Layer_1" data-name="Layer 1"><path class="cls-3" d="M342.27,351.81V508a51.06,51.06,0,0,0,28.18,45.65L508.79,623a51.11,51.11,0,0,0,45.76,0L692.9,553.68A51.08,51.08,0,0,0,721.08,508V351.81a51.07,51.07,0,0,0-27.47-45.28L555.27,234.45a51,51,0,0,0-47.19,0L369.73,306.53A51.06,51.06,0,0,0,342.27,351.81Z"/><g class="cls-4"><g class="cls-5"><polyline class="cls-6" points="531.67 674.5 531.67 670.52 531.67 420.12 720.17 321.21 768.57 348.69 751.04 588.47"/><polygon class="cls-7" points="531.67 649.01 531.67 420.12 317.69 304.88 317.69 598.82 531.67 649.01"/></g></g><g class="cls-8"><path class="cls-9" d="M353.8,577.32l68.51-52.49,66.91-27.18,6.38,40.63-3.92,46.53v33.4l3.92,20.18L560.2,637,553,572l24-59.21,44.47-11.95,58.95-36.47,18.05,104.45L568.88,642.36s-77,24.71-79.66,24.71-107.8-24.71-107.8-24.71Z"/></g><path class="cls-10" d="M478.2,534A118.77,118.77,0,0,1,497,525.76l-1.45,41.67L376.16,632.84a18.81,18.81,0,0,1-18.09-33Z"/><path class="cls-11" d="M717.75,621.73a18.8,18.8,0,0,1-25.41,7.86L572.61,566.4a81,81,0,0,0-11.65-5l1.26-38.75a118.48,118.48,0,0,1,27.95,10.51L709.9,596.32A18.8,18.8,0,0,1,717.75,621.73Z"/><path class="cls-12" d="M737.76,592.48V623a15.11,15.11,0,0,1-14.19,15.09L654,642.34c-8.16.5-11.32-10.41-4.16-14.36l76.57-42.21A7.66,7.66,0,0,1,737.76,592.48Z"/><g class="cls-13"><polygon class="cls-14" points="677.46 558.46 688.9 546.73 684.66 464.37 591.47 505.24 601.46 518.61 677.46 558.46"/><polygon class="cls-15" points="376.22 434.99 382.65 541.2 387.94 562.44 491.68 508.24 491.68 458.71 465.5 457.65 447.8 471.81 424.15 448.29 392.92 413.75 376.22 434.99"/><line class="cls-16" x1="560.2" y1="521.53" x2="693.69" y2="451.98"/><path class="cls-17" d="M376.22,566.6v-159a8.3,8.3,0,0,1,15.41-4.29l49.8,68.82,39-22.31a12.48,12.48,0,0,1,17.26,11.52v155"/><line class="cls-18" x1="560.2" y1="433.2" x2="560.2" y2="637.04"/><line class="cls-18" x1="693.69" y1="369.22" x2="693.69" y2="596.26"/><path class="cls-19" d="M397.33,323.2l123.42-63.53a23.91,23.91,0,0,1,22.33.23l79.62,43a23.65,23.65,0,0,1-.08,41.91h0a77.87,77.87,0,0,1-72,0l-52.89-28.91s62.48,38.36,35.4,79.78"/><line class="cls-19" x1="454.87" y1="293.58" x2="497.72" y2="315.91"/></g><text class="cls-20" transform="translate(322.49 808.3)">MHR-V</text><text class="cls-21" transform="translate(315.66 893.01)">Rust Version</text></g></g></svg>